<svg width="81" height="38" viewBox="0 0 81 38" fill="none" xmlns="http://www.w3.org/2000/svg">
<path fill-rule="evenodd" clip-rule="evenodd" d="M68.6848 12.4223C72.017 12.8123 75.2901 13.6824 78.1013 15.6126C78.4846 15.8526 78.6714 16.2426 78.6714 16.6327L78.7697 19.873L79.7723 22.1932C79.9197 22.4333 80.0082 22.6733 80.0082 22.9233C79.959 24.1334 80.0573 25.3436 80.1065 26.5537C80.1556 27.2337 80.2048 28.0038 80.0082 28.6339C79.674 29.794 78.5338 30.7141 77.6786 31.4442C77.4427 31.6342 77.2068 31.7342 76.8726 31.7342H74.258C74.1598 33.1843 73.5405 34.5845 72.5477 35.6546C71.4075 36.7647 69.9332 37.4448 68.3605 37.4448C66.7878 37.4448 65.2741 36.8147 64.1732 35.6546C63.1313 34.5945 62.512 33.2344 62.4629 31.7342H37.6931C37.5948 33.2344 37.0247 34.5845 35.9828 35.6546C34.8426 36.7647 33.3682 37.4448 31.7955 37.4448C30.2228 37.4448 28.7484 36.8147 27.6082 35.6546C26.5171 34.5445 25.8979 32.9943 25.8979 31.3942C25.8979 29.794 26.5171 28.2939 27.6082 27.1837C28.7484 26.0236 30.2228 25.3936 31.7955 25.3936C33.3682 25.3936 34.8426 26.0236 35.9828 27.1837C36.7003 27.8638 37.1721 28.7339 37.4572 29.704H62.7086C62.9937 28.7339 63.4655 27.8638 64.183 27.1837C65.2741 26.0236 66.7976 25.3936 68.3703 25.3936C69.943 25.3936 71.4174 26.0236 72.5576 27.1837C73.226 27.8638 73.7469 28.7339 74.032 29.704H76.6466C77.315 29.1739 77.9735 28.5439 78.1701 27.6738C78.3175 27.0937 78.2193 26.4137 78.1701 25.8336C78.0718 24.9135 78.0227 23.9934 78.0227 23.0733L76.8333 20.3631C76.7842 20.263 76.7842 20.173 76.7842 20.073L76.735 17.0727C74.1204 15.4326 71.0242 14.7025 67.987 14.4125C67.8395 14.3625 67.6528 14.3124 67.5545 14.1724C64.183 10.4021 60.1825 7.20173 55.9952 4.40145C47.7681 1.9312 36.543 1.59117 28.0407 2.47126C26.8513 2.57127 24.05 2.71128 23.7649 4.26144C23.7649 4.26144 23.7486 4.27811 23.7158 4.31144C21.7696 11.0821 22.1431 16.6927 21.7204 23.8134C21.5337 27.0537 21.4354 31.9442 17.2481 32.3243C14.4468 32.6143 12.4416 30.4841 10.8787 28.4039C9.45348 29.0839 7.83165 29.224 6.31794 28.8439C4.42088 28.4039 2.79905 27.2437 1.79646 25.5536L0.322065 23.1333C0.0370157 22.6533 -0.0612782 22.0232 0.0370148 21.4932C0.184454 20.9131 0.508822 20.4331 1.0396 20.093L1.84561 19.613L0.51865 17.4328C0.2336 16.9927 0.469505 16.4127 0.901994 16.1726C1.33448 15.8826 1.90458 15.9326 2.18963 16.3627L3.51659 18.5429L7.17309 16.2226L5.84613 14.0424C5.61023 13.6024 5.79698 13.0223 6.22947 12.7823C6.66196 12.5423 7.23206 12.5423 7.51711 13.0223L8.84407 15.2025L9.65007 14.6725C10.1219 14.3825 10.7411 14.2824 11.2621 14.3825C11.8322 14.5325 12.304 14.8625 12.6382 15.4026L14.1126 17.8228C15.1152 19.463 15.4395 21.4532 14.9677 23.3834C14.6335 24.9335 13.7784 26.3337 12.5399 27.4038C13.6801 28.8539 15.3019 30.5941 17.1498 30.3041C19.8136 29.964 19.6268 25.4136 19.7644 23.4334C20.2854 14.6725 19.4302 12.1622 21.8089 3.79139C22.4282 1.03111 25.5637 0.691081 27.8441 0.451057C36.7396 -0.469035 48.0531 -0.0789957 56.6636 2.53127C56.7619 2.53127 56.8504 2.63128 56.9978 2.68128C61.2342 5.49157 65.2249 8.68188 68.6947 12.4523L68.6848 12.4223ZM49.3408 14.0624C49.4391 14.1624 49.5275 14.2124 49.6258 14.2524C50.0583 14.4425 50.481 14.6925 50.9135 14.9325C51.346 15.1725 51.7195 15.3726 52.152 15.6126C52.3879 15.7126 52.6238 15.8526 52.8203 16.0026C53.8622 16.6327 53.8623 17.7928 53.0563 18.6629L45.6351 26.5537C45.1633 27.0837 44.4949 27.5238 43.7774 27.5238C43.4432 27.5238 43.109 27.4238 42.824 27.2337C42.5389 27.0437 42.3521 26.7537 42.2047 26.4637C41.9688 25.7836 42.1064 25.0135 42.3915 24.3835L45.0061 18.9129L41.2021 16.8327C41.1038 16.7327 40.9662 16.6827 40.8188 16.5427C40.632 16.3527 40.4846 16.0626 40.4354 15.7726C40.3371 15.2926 40.5829 14.7525 40.9072 14.4625L49.0852 6.48166C50.6579 4.98151 52.84 6.48166 51.9849 8.46186L49.3211 14.0724L49.3408 14.0624ZM42.2047 15.4726L46.0578 17.6028C46.4411 17.8428 46.7262 18.1828 46.7262 18.6229C46.7753 18.9629 46.677 19.2529 46.5394 19.493L43.8757 25.1035C43.4432 26.0236 43.8757 26.0736 44.4458 25.4436L51.8669 17.5528L52.0143 17.4028L48.2596 15.3726C47.9745 15.2225 47.7386 14.9825 47.6403 14.6925C47.542 14.3525 47.5912 14.0124 47.7386 13.7224L50.5399 7.77179C50.6874 7.38176 50.4908 7.48176 50.2549 7.67178L42.2145 15.4626L42.2047 15.4726ZM12.4416 18.8529L10.9672 16.3827C10.9672 16.3827 10.8689 16.2826 10.8198 16.2826C10.7706 16.2826 10.7215 16.2826 10.6723 16.3327L2.02253 21.7532C2.02253 21.7532 1.97339 21.8532 1.92424 21.9032C1.92424 21.9532 1.92424 22.0032 1.97339 22.0532L3.44778 24.5235C4.20464 25.7336 5.35467 26.5537 6.73077 26.8937C8.10687 27.2337 9.53212 26.9937 10.7215 26.2637C11.9108 25.4936 12.766 24.2835 13.1002 22.8733C13.3852 21.5232 13.1493 20.063 12.4318 18.8529H12.4416ZM71.0635 28.6239C70.346 27.8938 69.3532 27.4638 68.3506 27.4638C67.3481 27.4638 66.3553 27.9038 65.5886 28.6239C64.8711 29.354 64.4976 30.3641 64.4976 31.3842C64.4976 32.4043 64.8809 33.4144 65.5886 34.1945C66.3455 34.9245 67.2989 35.3046 68.3506 35.3046C69.4024 35.3046 70.346 34.9145 71.0635 34.1945C71.7811 33.4244 72.2037 32.4543 72.2037 31.3842C72.2037 30.3141 71.7712 29.354 71.0635 28.6239ZM34.4985 28.6239C33.781 27.8938 32.8374 27.4638 31.7856 27.4638C30.7339 27.4638 29.7903 27.9038 29.0728 28.6239C28.3159 29.354 27.9326 30.3641 27.9326 31.3842C27.9326 32.4043 28.3159 33.4144 29.0728 34.1945C29.7903 34.9245 30.7339 35.3046 31.7856 35.3046C32.8374 35.3046 33.781 34.9145 34.4985 34.1945C35.2554 33.4244 35.6387 32.4543 35.6387 31.3842C35.6387 30.3141 35.2554 29.354 34.4985 28.6239Z" fill="#7EFF00"/>
</svg>
